<svg id="YouTube_Icon" data-name="YouTube Icon" xmlns="http://www.w3.org/2000/svg" xmlns:xlink="http://www.w3.org/1999/xlink" width="20" height="14.07" viewBox="0 0 20 14.07"><defs><linearGradient id="linear-gradient" x1="10" x2="10" y2="14.07" gradientUnits="userSpaceOnUse"><stop offset="0" stop-color="#e52d27"/><stop offset="1" stop-color="#bf171d"/></linearGradient></defs><title>YouTube</title><path id="Triangle" d="M7.93,9.63l5.4-2.8L7.93,4Z" transform="translate(0)" fill="#fff"/><path id="The_Sharpness" data-name="The Sharpness" d="M7.93,4l4.74,3.16.66-.35Z" transform="translate(0)" fill="#420000" fill-rule="evenodd" opacity="0.12"/><g id="Lozenge"><path d="M19.8,3A4.33,4.33,0,0,0,19,1,2.86,2.86,0,0,0,17,.2C14.2,0,10,0,10,0h0S5.8,0,3,.2A2.86,2.86,0,0,0,1,1,4.33,4.33,0,0,0,.2,3,30.25,30.25,0,0,0,0,6.27V7.79A30.25,30.25,0,0,0,.2,11,4.33,4.33,0,0,0,1,13a3.39,3.39,0,0,0,2.21.85c1.6.15,6.8.2,6.8.2s4.2,0,7-.21A2.86,2.86,0,0,0,19,13a4.33,4.33,0,0,0,.8-2A30.28,30.28,0,0,0,20,7.79V6.27A30.28,30.28,0,0,0,19.8,3ZM7.94,9.63V4l5.4,2.82Z" transform="translate(0)" fill="url(#linear-gradient)"/></g></svg>