<svg width="24" height="24" viewBox="0 0 24 24" fill="none" xmlns="http://www.w3.org/2000/svg">
<path fill-rule="evenodd" clip-rule="evenodd" d="M6.99431 0H16.9862C20.833 0 23.9805 3.14744 23.9805 6.99431V16.9862C23.9805 20.833 20.833 23.9805 16.9862 23.9805H6.99431C3.14744 23.9805 0 20.833 0 16.9862V6.99431C0 3.14744 3.14744 0 6.99431 0ZM20.5146 3.46593C19.5653 2.52295 18.3101 1.99837 16.9862 1.99837H6.99431C5.67039 1.99837 4.40891 2.5167 3.46593 3.46593C2.52295 4.41516 1.99837 5.67039 1.99837 6.99431V16.9862C1.99837 18.3101 2.5167 19.5716 3.46593 20.5146C4.41516 21.4575 5.67039 21.9821 6.99431 21.9821H16.9862C18.3101 21.9821 19.5716 21.4638 20.5146 20.5146C21.4575 19.5653 21.9821 18.3101 21.9821 16.9862V6.99431C21.9821 5.67039 21.4638 4.40891 20.5146 3.46593Z" fill="black"/>
<path fill-rule="evenodd" clip-rule="evenodd" d="M18.485 6.99431C17.6544 6.99431 16.9862 6.3261 16.9862 5.49553C16.9862 4.66495 17.6544 3.99675 18.485 3.99675C19.3093 3.99675 19.9837 4.66495 19.9837 5.49553C19.9837 6.3261 19.3093 6.99431 18.485 6.99431ZM11.9902 7.99349C14.1947 7.99349 15.987 9.78579 15.987 11.9902C15.987 14.1947 14.1947 15.987 11.9902 15.987C9.78578 15.987 7.99349 14.1947 7.99349 11.9902C7.99349 9.78579 9.78578 7.99349 11.9902 7.99349ZM5.99512 11.9902C5.99512 8.68044 8.68043 5.99512 11.9902 5.99512C15.3 5.99512 17.9854 8.68044 17.9854 11.9902C17.9854 15.3 15.3 17.9854 11.9902 17.9854C8.68043 17.9854 5.99512 15.3 5.99512 11.9902Z" fill="black"/>
</svg>
