<svg width="257" height="31" viewBox="0 0 257 31" xmlns="http://www.w3.org/2000/svg">
	<title>Helping Hands</title>
	<g id="helping-hands-logo">
		<g id="icon">
			<g id="leaves" fill="#6BB145">
				<path d="M10.837 5.848c-.465.49-1.167 1.078-1.87 1.078-.076 0-.15-.007-.223-.02-.032-.006-.06-.033-.075-.07-.02-.04-.02-.086-.01-.126.44-1.337 1.16-2.756 2.19-4.105-1.1 1.015-1.94 2.505-2.5 3.74-.03.048-.07.074-.11.062-.04-.012-.08-.058-.08-.115-.11-.993.08-2.063.56-3.096.35-.754.72-1.225.76-1.27C10.5.54 12.24.232 12.94.164c.03-.003.06.012.08.04.02.03.03.07.03.11-.065 1.265-.37 2.526-.853 3.55-.33.68-.84 1.423-1.37 1.985z" id="leaf3"/>
				<path d="M12.047 13.063c-.698.74-1.752 1.62-2.81 1.62-.113 0-.225-.01-.332-.03-.048-.01-.09-.05-.114-.107-.02-.058-.02-.127 0-.188.66-2.006 1.75-4.138 3.3-6.163-1.66 1.522-2.93 3.762-3.77 5.615-.03.07-.1.11-.16.09-.06-.02-.11-.09-.12-.176-.16-1.49.13-3.098.84-4.65.53-1.13 1.09-1.84 1.14-1.904 1.53-2.084 4.15-2.546 5.2-2.65.04-.002.09.02.12.063.03.042.05.102.05.162-.1 1.9-.55 3.794-1.28 5.33-.48 1.023-1.25 2.138-2.05 2.98z" id="leaf2"/>
				<path d="M7.614 10.733c-.066.02-.134-.02-.17-.1C6.562 8.69 5.23 6.34 3.49 4.743c1.62 2.125 2.766 4.362 3.46 6.467.02.064.02.136-.006.197-.024.06-.068.102-.12.11-.112.022-.23.033-.348.033-1.11 0-2.216-.924-2.948-1.7-.836-.884-1.638-2.053-2.147-3.127C.62 5.11.14 3.126.04 1.13c-.01-.063.008-.125.04-.17C.115.913.16.89.207.895c1.106.107 3.85.59 5.456 2.78.056.068.647.81 1.196 1.998.75 1.627 1.06 3.314.88 4.877-.01.092-.06.165-.13.183z" id="leaf1"/>
			</g>
			<path d="M2.78 18.74c1.743.117 3.577 2.09 5.415 3.338 2.69 1.825 7.758-.543 7.76-.543-.156-.08-.424-.178-.75-.287-1.04-.347-1.16-.928-3.078-1.622-3.18-1.15-2.592-3.544-1.243-3.52 1.782.032 2.826.508 6.38 1.035 2.694.4 5.88.26 7.408.89 2.157.9 5.633 6.93 5.633 6.93l-5.373 5.67s-3.325-3.56-4.943-3.56c-3.69 0-3.84-.05-7.27-.25-1.46-.08-1.76-.15-2.59-.45-4.44-1.65-9.2-6-9.29-6.52-.2-1.21 1.94-1.11 1.94-1.11z" id="hand" fill="#7095C1"/>
		</g>
		<path d="M36.4 28.633V6.953c0-.444.212-.777.635-1 .422-.222.934-.333 1.534-.333s1.11.11 1.53.333c.42.223.63.556.63 1v8.706h7.5V6.95c0-.445.21-.778.63-1 .42-.223.93-.334 1.53-.334s1.11.11 1.53.332c.42.223.63.556.63 1v21.68c0 .422-.22.756-.65 1-.43.245-.94.367-1.52.367-.6 0-1.11-.123-1.54-.368-.43-.245-.64-.58-.64-1v-9.57h-7.5v9.573c0 .422-.22.756-.65 1-.44.245-.94.367-1.52.367-.6 0-1.12-.122-1.54-.367-.43-.244-.64-.578-.64-1zm20.18 0V6.987c0-.422.188-.756.566-1 .378-.245.822-.367 1.334-.367h11.873c.445 0 .784.19 1.017.567.234.378.35.812.35 1.3 0 .534-.122.99-.366 1.368-.245.378-.58.567-1 .567h-9.44v6.67h5.07c.422 0 .756.173 1 .517.245.34.367.75.367 1.21 0 .42-.11.8-.35 1.15-.23.34-.57.51-1.01.51h-5.07v6.7h9.44c.42 0 .76.19 1 .56.25.38.37.83.37 1.36 0 .49-.11.92-.35 1.3-.23.38-.57.57-1.01.57H58.48c-.512 0-.956-.13-1.334-.37-.378-.25-.567-.58-.567-1zm17.675 0V6.953c0-.444.21-.777.634-1 .42-.222.93-.333 1.53-.333s1.11.11 1.53.333c.42.223.63.556.63 1V26.2h8.14c.4 0 .71.19.95.567.23.378.35.823.35 1.334 0 .51-.12.96-.35 1.34-.24.38-.55.57-.95.57H76.15c-.51 0-.956-.12-1.334-.36-.377-.24-.566-.58-.566-1zm16.142 0V6.953c0-.355.15-.666.45-.933.3-.267.695-.4 1.185-.4h6.703c2.29 0 4.125.606 5.503 1.818 1.38 1.21 2.068 3.107 2.068 5.686v.2c0 2.602-.717 4.514-2.15 5.737-1.435 1.23-3.33 1.84-5.688 1.84h-3.735v7.74c0 .42-.217.76-.65 1-.434.25-.94.37-1.518.37-.6 0-1.112-.12-1.534-.36-.42-.24-.63-.58-.63-1zm4.336-11.14h3.735c1.112 0 1.974-.322 2.585-.967.612-.645.917-1.6.917-2.868v-.4c0-1.268-.305-2.224-.917-2.87-.61-.644-1.473-.966-2.585-.966h-3.735v8.07zm14.24 11.14V6.953c0-.444.212-.777.635-1 .422-.222.934-.333 1.534-.333s1.112.11 1.534.333c.423.223.634.556.634 1v21.68c0 .422-.217.756-.65 1-.434.245-.94.367-1.518.367-.6 0-1.112-.122-1.534-.367-.423-.244-.634-.578-.634-1zm8.34 0V6.987c0-.444.21-.783.633-1.017.422-.233.934-.35 1.534-.35.8 0 1.412.145 1.834.434.423.29.89.91 1.4 1.867l6.438 12.44V6.96c0-.445.21-.778.634-1 .422-.223.933-.334 1.534-.334.6 0 1.11.11 1.534.334.422.223.634.556.634 1v21.68c0 .422-.217.756-.65 1-.434.245-.94.367-1.518.367-1.18 0-2.012-.455-2.502-1.366l-7.17-13.41v13.41c0 .43-.217.76-.65 1-.434.25-.94.37-1.518.37-.6 0-1.112-.12-1.534-.36-.423-.24-.634-.58-.634-1zm19.91-6.07v-9.306c0-2.623.706-4.552 2.118-5.786 1.42-1.23 3.27-1.85 5.56-1.85 2.36 0 4.28.58 5.76 1.74 1.48 1.16 2.22 2.72 2.22 4.67 0 .8-.17 1.35-.51 1.64-.34.29-.89.44-1.65.44-1.42 0-2.14-.45-2.17-1.36-.06-.98-.34-1.77-.83-2.38-.49-.61-1.36-.91-2.63-.91-2.33 0-3.5 1.28-3.5 3.84v9.3c0 2.56 1.16 3.84 3.47 3.84 1.11 0 1.97-.32 2.59-.97.61-.64.92-1.6.92-2.86v-2h-2.7c-.42 0-.75-.16-.99-.5-.23-.33-.35-.73-.35-1.2 0-.44.12-.84.37-1.18.25-.34.57-.51.97-.51h5.67c.42 0 .76.14 1 .41.25.28.37.6.37.98v3.97c0 2.64-.71 4.58-2.13 5.8-1.42 1.22-3.32 1.83-5.7 1.83-2.38 0-4.27-.61-5.69-1.84-1.41-1.23-2.11-3.16-2.11-5.81zm25.747 6.07V6.953c0-.444.212-.777.634-1 .423-.222.934-.333 1.534-.333s1.112.11 1.534.333c.423.223.634.556.634 1v8.706h7.504V6.95c0-.445.21-.778.634-1 .422-.223.934-.334 1.534-.334s1.112.11 1.534.332c.423.223.634.556.634 1v21.68c0 .422-.217.756-.65 1-.434.245-.94.367-1.518.367-.6 0-1.112-.123-1.534-.368-.423-.245-.634-.58-.634-1v-9.57h-7.504v9.573c0 .422-.217.756-.65 1-.434.245-.94.367-1.518.367-.6 0-1.11-.122-1.534-.367-.422-.244-.634-.578-.634-1zm18.477-.434c0-.05.022-.16.067-.34l6.436-20.98c.14-.47.467-.83.99-1.09.52-.26 1.117-.39 1.784-.39s1.267.12 1.8.38c.535.25.868.61 1 1.08l6.438 20.97c.046.18.068.29.068.33 0 .49-.3.91-.9 1.26-.6.35-1.212.53-1.835.53-.824 0-1.314-.29-1.47-.86l-1.267-4.44h-7.637l-1.27 4.43c-.15.58-.64.87-1.46.87-.64 0-1.26-.17-1.85-.52-.59-.35-.88-.77-.88-1.29zm6.37-6.91h5.804l-2.9-10.24-2.9 10.24zm14.508 7.34V6.98c0-.444.212-.783.634-1.017.42-.23.93-.35 1.53-.35.8 0 1.41.146 1.83.435.42.29.89.91 1.4 1.868l6.44 12.44v-13.4c0-.445.21-.778.63-1 .42-.223.93-.334 1.53-.334s1.11.11 1.53.334c.42.223.63.556.63 1v21.68c0 .422-.22.756-.65 1-.44.245-.94.367-1.52.367-1.18 0-2.01-.455-2.5-1.366l-7.17-13.408v13.4c0 .42-.22.75-.65 1-.44.24-.94.36-1.52.36-.6 0-1.12-.12-1.54-.37-.43-.25-.64-.58-.64-1zm20.178.03V6.95c0-.354.178-.665.534-.932.355-.266.81-.4 1.367-.4h5.903c2.38 0 4.28.61 5.703 1.835 1.423 1.223 2.135 3.158 2.135 5.803v9.105c0 2.65-.712 4.58-2.135 5.81-1.423 1.23-3.324 1.84-5.703 1.84h-5.903c-.556 0-1.012-.13-1.367-.4-.356-.26-.534-.57-.534-.93zm4.336-2.47h3.46c2.33 0 3.5-1.28 3.5-3.84v-9.1c0-2.56-1.17-3.84-3.51-3.84h-3.47V26.2zm13.8-.04c0-.51.19-1.03.58-1.55.39-.53.82-.79 1.31-.79.29 0 .61.13.98.4.37.26.72.56 1.07.88.34.32.84.62 1.48.88s1.35.4 2.13.4c1.06 0 1.95-.25 2.67-.74.71-.49 1.06-1.21 1.06-2.17 0-.67-.2-1.26-.59-1.79-.39-.52-.9-.96-1.54-1.3-.63-.35-1.33-.68-2.08-1-.76-.32-1.52-.69-2.28-1.09-.77-.4-1.47-.85-2.1-1.35-.64-.5-1.15-1.17-1.54-2.01-.39-.84-.59-1.79-.59-2.85 0-1.18.24-2.22.72-3.12.48-.9 1.12-1.6 1.92-2.1.8-.5 1.65-.87 2.57-1.1.91-.23 1.87-.35 2.9-.35.58 0 1.19.04 1.83.12.65.08 1.33.2 2.05.38.72.17 1.31.45 1.77.83.45.37.68.82.68 1.33 0 .49-.16 1-.47 1.52-.31.52-.737.78-1.27.78-.2 0-.747-.21-1.637-.64-.89-.427-1.88-.638-2.97-.638-1.2 0-2.13.23-2.784.68-.653.455-.98 1.083-.98 1.883 0 .65.27 1.21.8 1.69.534.48 1.196.863 1.985 1.163.79.3 1.643.68 2.565 1.133.93.458 1.78.95 2.57 1.486.79.53 1.45 1.302 1.99 2.314.53 1.02.8 2.2.8 3.56 0 2.31-.73 4.096-2.19 5.35-1.45 1.257-3.37 1.885-5.75 1.885-2.11 0-3.92-.43-5.44-1.3-1.51-.87-2.27-1.81-2.27-2.835z" id="HELPING-HANDS" fill="#7096C1"/>
	</g>
</svg>
