<?xml version="1.0" encoding="UTF-8"?><svg id="tahoe-logo" xmlns="http://www.w3.org/2000/svg" width="190.15" height="50.17" xmlns:xlink="http://www.w3.org/1999/xlink" viewBox="0 0 190.15 50.17"><defs><linearGradient id="linear-gradient" x1="25.74" y1="48.04" x2="25.74" y2="38.25" gradientUnits="userSpaceOnUse"><stop offset="0" stop-color="#2894e2"/><stop offset=".05" stop-color="#2a98e4"/><stop offset=".4" stop-color="#36aff3"/><stop offset=".72" stop-color="#3dbefb"/><stop offset="1" stop-color="#40c3ff"/></linearGradient><linearGradient id="linear-gradient-2" x1="27.82" y1="27.27" x2="40.91" y2="19.71" gradientUnits="userSpaceOnUse"><stop offset="0" stop-color="#005054"/><stop offset=".61" stop-color="#38806a"/><stop offset="1" stop-color="#549c63"/></linearGradient><linearGradient id="linear-gradient-3" x1="3.84" y1="34.31" x2="27.73" y2="20.52" gradientUnits="userSpaceOnUse"><stop offset="0" stop-color="#005054"/><stop offset=".64" stop-color="#38806a"/><stop offset="1" stop-color="#549c63"/></linearGradient><linearGradient id="linear-gradient-4" x1="29.44" y1="12.3" x2="29.44" y2="5.3" gradientUnits="userSpaceOnUse"><stop offset="0" stop-color="#e37d00"/><stop offset=".73" stop-color="#fb3"/></linearGradient></defs><path d="M69.79,46.12l-.49-1.85h-3.2l-.5,1.85h-2.92l3.21-9.89h3.55l3.25,9.89h-2.91ZM68.76,42.09l-.42-1.62c-.1-.36-.22-.82-.36-1.39-.14-.57-.23-.98-.28-1.23-.04.23-.12.61-.24,1.13-.12.53-.38,1.56-.79,3.11h2.1Z" fill="#fff" stroke-width="0"/><path d="M82.68,40.99c0,1.64-.45,2.91-1.36,3.8-.91.89-2.18,1.33-3.82,1.33h-3.19v-9.85h3.41c1.58,0,2.8.4,3.66,1.21.86.81,1.29,1.98,1.29,3.5ZM79.92,41.08c0-.9-.18-1.57-.54-2.01-.36-.44-.9-.65-1.63-.65h-.77v5.52h.59c.81,0,1.4-.23,1.78-.7.38-.47.57-1.19.57-2.15Z" fill="#fff" stroke-width="0"/><path d="M89.71,36.27h2.98l-3.23,9.85h-3.13l-3.21-9.85h2.99l1.34,4.99c.28,1.11.43,1.88.46,2.32.03-.31.09-.71.19-1.18s.18-.84.25-1.11l1.37-5.02Z" fill="#fff" stroke-width="0"/><path d="M100.08,46.12h-5.85v-9.85h5.85v2.14h-3.19v1.55h2.95v2.14h-2.95v1.86h3.19v2.17Z" fill="#fff" stroke-width="0"/><path d="M111.6,46.12h-3.49l-3.6-6.94h-.06c.08,1.09.13,1.92.13,2.5v4.44h-2.36v-9.85h3.48l3.58,6.85h.04c-.06-.99-.09-1.79-.09-2.39v-4.45h2.37v9.85Z" fill="#fff" stroke-width="0"/><path d="M118.21,46.12h-2.66v-7.67h-2.41v-2.18h7.47v2.18h-2.4v7.67Z" fill="#fff" stroke-width="0"/><path d="M130.53,36.27v5.93c0,1.29-.37,2.29-1.1,3-.73.71-1.78,1.06-3.16,1.06s-2.38-.34-3.1-1.03c-.72-.69-1.08-1.67-1.08-2.96v-5.99h2.67v5.78c0,.7.13,1.2.39,1.52s.64.47,1.15.47c.54,0,.94-.16,1.18-.47.25-.31.37-.82.37-1.53v-5.77h2.66Z" fill="#fff" stroke-width="0"/><path d="M134.99,42.54v3.58h-2.66v-9.85h3.23c2.68,0,4.02.97,4.02,2.91,0,1.14-.56,2.02-1.67,2.65l2.87,4.29h-3.02l-2.09-3.58h-.67ZM134.99,40.54h.5c.93,0,1.39-.41,1.39-1.23,0-.68-.46-1.02-1.37-1.02h-.53v2.25Z" fill="#fff" stroke-width="0"/><path d="M147.65,46.12h-5.85v-9.85h5.85v2.14h-3.19v1.55h2.95v2.14h-2.95v1.86h3.19v2.17Z" fill="#fff" stroke-width="0"/><path d="M157.62,38.31c-.63,0-1.13.26-1.48.78-.36.52-.53,1.23-.53,2.15,0,1.9.72,2.84,2.16,2.84.44,0,.86-.06,1.27-.18.41-.12.82-.27,1.23-.44v2.25c-.82.36-1.75.55-2.79.55-1.49,0-2.63-.43-3.42-1.29s-1.19-2.11-1.19-3.74c0-1.02.19-1.92.58-2.69.38-.77.94-1.37,1.66-1.78.72-.42,1.57-.62,2.54-.62,1.07,0,2.08.23,3.05.69l-.82,2.1c-.36-.17-.73-.31-1.09-.43-.36-.12-.75-.17-1.17-.17Z" fill="#fff" stroke-width="0"/><path d="M162.47,46.12v-9.85h2.66v7.7h3.79v2.15h-6.46Z" fill="#fff" stroke-width="0"/><path d="M178.6,36.27v5.93c0,1.29-.37,2.29-1.1,3-.73.71-1.78,1.06-3.16,1.06s-2.38-.34-3.1-1.03c-.72-.69-1.08-1.67-1.08-2.96v-5.99h2.67v5.78c0,.7.13,1.2.39,1.52s.64.47,1.15.47c.54,0,.94-.16,1.18-.47.25-.31.37-.82.37-1.53v-5.77h2.66Z" fill="#fff" stroke-width="0"/><path d="M180.88,36.27h3.44c1.34,0,2.33.2,2.98.6s.97,1.02.97,1.86c0,.55-.14,1.02-.42,1.42-.28.39-.66.64-1.12.75v.07c.61.16,1.05.43,1.33.81.27.38.41.87.41,1.47,0,.89-.34,1.6-1.01,2.11-.67.51-1.59.77-2.75.77h-3.83v-9.85ZM183.54,40.05h.8c.38,0,.68-.08.89-.24s.31-.39.31-.7c0-.55-.42-.83-1.25-.83h-.75v1.77ZM183.54,42v2.07h.94c.83,0,1.25-.35,1.25-1.05,0-.33-.11-.58-.33-.75-.22-.17-.54-.26-.97-.26h-.88Z" fill="#fff" stroke-width="0"/><path d="M85.51,11.7h-5.5v-2.5h-2.05v14.4h2.24v5.25h-13.44v-5.25h2.24v-14.4h-2.05v2.5h-5.5V3.96h24.06v7.74Z" fill="#fff" stroke-width="0"/><path d="M108.17,23.61h1.28v5.25h-12.54v-5.25h1.92l-.51-2.56h-4.35l-.51,2.56h1.92v5.25h-10.94v-5.25h1.28l5.41-19.65h11.65l5.41,19.65ZM94.66,17.65h2.94l-1.31-6.37h-.32l-1.31,6.37Z" fill="#fff" stroke-width="0"/><path d="M137.67,9.21h-1.6v14.4h1.6v5.25h-12.1v-5.25h1.54v-5.28h-4.48v5.28h1.54v5.25h-12.1v-5.25h1.6v-14.4h-1.6V3.96h12.1v5.25h-1.54v4.86h4.48v-4.86h-1.54V3.96h12.1v5.25Z" fill="#fff" stroke-width="0"/><path d="M142.9,26.23c-2.12-2.05-3.18-5.32-3.18-9.82s1.06-7.78,3.18-9.82,5.14-3.07,9.04-3.07,6.92,1.02,9.04,3.07,3.18,5.32,3.18,9.82-1.06,7.78-3.18,9.82c-2.12,2.05-5.14,3.07-9.04,3.07s-6.92-1.02-9.04-3.07ZM153.58,23.03c.36-.38.54-.98.54-1.79v-9.66c0-.81-.18-1.41-.54-1.79-.36-.38-.91-.58-1.63-.58s-1.27.19-1.63.58c-.36.38-.54.98-.54,1.79v9.66c0,.83.18,1.44.54,1.81.36.37.91.56,1.63.56s1.27-.19,1.63-.58Z" fill="#fff" stroke-width="0"/><path d="M166.38,28.86v-5.25h1.6v-14.4h-1.6V3.96h21.6v9.66h-7.17v-4.42h-3.87v5.06h2.82v3.65h-2.82v5.7h3.87v-5.06h7.17v10.3h-21.6Z" fill="#fff" stroke-width="0"/><g id="logo-icon"><circle id="circle" cx="25" cy="25" r="25" fill="#fff" stroke-width="0"/><path id="water" d="M23,26c-9.91,1.65-17.32,7.25-17.32,7.25,3.21,7.5,10.65,12.75,19.32,12.75,10.63,0,19.42-7.9,20.8-18.15,0,0-10.8-3.85-22.8-1.85Z" fill="url(#linear-gradient)" stroke-width="0"/><polygon id="mountain" points="45.8 27.85 26.81 27.85 29.44 23.3 36.31 11.4 45.8 27.85" fill="url(#linear-gradient-2)" stroke-width="0"/><polygon id="mountain-2" points="35.18 33.25 5.68 33.25 20.43 7.7 35.18 33.25" fill="url(#linear-gradient-3)" stroke-width="0"/><circle id="sun" cx="29.44" cy="8.8" r="3.5" fill="url(#linear-gradient-4)" stroke-width="0"/></g></svg>