<?xml version="1.0" encoding="UTF-8"?><svg id="tahoe-logo" xmlns="http://www.w3.org/2000/svg" viewBox="0 0 127.5 52.36"><path id="club" d="M119.72,48.17c-.11-.19-.23-.29-.34-.29s-.22.08-.33.24-.23.34-.36.53c-.13.19-.28.37-.45.53-.17.16-.36.24-.56.24s-.38-.1-.5-.29-.23-.43-.31-.72-.16-.6-.22-.93c-.07-.33-.15-.65-.26-.93-.11-.29-.25-.53-.42-.72-.17-.19-.4-.29-.67-.29s-.6.26-.99.77c-.2.26-.36.59-.47.99.22.24.44.5.67.78.23.28.35.62.34,1.03,0,.41-.06.71-.17.92s-.26.38-.45.5c-.19.13-.48.12-.86,0-.55-.19-.82-.88-.82-2.06,0-1.59.28-3.08.84-4.46,1.57-.11,2.8-.39,3.71-.84,1.11-.56,1.67-1.36,1.67-2.38,0-.57-.22-1.06-.65-1.46-.44-.4-1.07-.6-1.89-.6-.42.01-.84.11-1.26.3-1.24.57-2.36,1.79-3.34,3.64-.29-.06-.57-.14-.84-.24-.28-.1-.52-.15-.74-.15-.16-.01-.23.08-.23.27,0,.36.44.73,1.33,1.11-.74,1.64-1.14,3.22-1.22,4.75-.18.18-.37.38-.57.59-.26.27-.53.52-.79.74-.26.23-.48.34-.66.34-.13,0-.2-.1-.2-.3-.01-.43.11-1.26.38-2.49.26-1.23.39-2.14.39-2.73,0-.42-.04-.73-.12-.93-.08-.2-.27-.3-.58-.3-1.24,0-1.86.4-1.86,1.2v.32c0,.14,0,.29,0,.43,0,.14.01.29.02.44,0,.15.02.27.03.37-.12.97-.35,1.85-.68,2.64-.43,1.03-.94,1.54-1.52,1.54-.54,0-.81-.21-.81-.64,0-.54.1-1.16.29-1.86s.34-1.28.46-1.74.14-.98.08-1.57c-.07-.72-.38-1.08-.93-1.08-.69,0-1.23.14-1.6.43l-.52,4.41c-.2.38-.35.71-.44.97-.02.06-.03.13-.05.19-.58.45-1.21.68-1.9.68-.38,0-.72-.16-1-.47-.29-.31-.43-.8-.43-1.47v-.72c.56-.73,1.14-1.4,1.72-2.03s1.12-1.22,1.61-1.78c.48-.57.88-1.12,1.19-1.65.31-.53.47-1.06.47-1.59s-.15-.93-.44-1.21c-.29-.28-.7-.42-1.21-.42-1.16-.01-2.21.51-3.16,1.56-.43.48-.82,1.05-1.17,1.72-.68,1.31-1.14,2.75-1.38,4.3-.1.67-.15,1.3-.17,1.91-.21.24-.45.49-.72.77-.27.28-.58.54-.91.78-.33.24-.67.36-1.03.35-.36,0-.67-.08-.93-.22-.38-.22-.58-.54-.59-.97,0-.9.13-1.68.39-2.35.13-.33.3-.61.49-.82.2-.22.4-.32.62-.31.21,0,.41.09.59.26.18.17.39.25.63.25.18,0,.36-.13.53-.38.17-.25.26-.59.26-1,0-.73-.46-1.09-1.38-1.09-.53,0-1.08.15-1.67.44-.59.29-1.11.7-1.57,1.23-.46.53-.83,1.15-1.11,1.87-.28.72-.42,1.53-.42,2.42s.3,1.57.9,2.04c.6.47,1.29.71,2.09.71s1.48-.14,2.07-.41c.59-.27,1.07-.61,1.44-1,.22-.23.41-.47.57-.71.02.05.04.1.06.15.62,1.29,1.79,1.93,3.5,1.92.49,0,.97-.11,1.43-.34.33-.16.62-.36.89-.58.11.16.24.3.41.42.51.36,1.23.54,2.18.54.54,0,1.02-.16,1.43-.48.42-.32.75-.7.99-1.14.05.45.16.83.35,1.13s.5.45.96.45c.02.01.05.02.09.02.37,0,1.25-.41,2.64-1.22.23-.21.42-.43.58-.65.19.52.5.94.94,1.26.64.47,1.42.7,2.32.7s1.6-.17,2.09-.5.84-.75,1.04-1.25c.32.24.78.36,1.36.37.59,0,1.07-.25,1.44-.78s.56-.98.56-1.36c0-.17-.06-.35-.17-.54ZM115.2,41.14c.47-.44.85-.66,1.14-.66s.45.21.46.63c-.01.24-.1.47-.27.68-.48.57-1.37.97-2.67,1.2.43-.79.88-1.4,1.34-1.85ZM98.28,41.76c.51-.86.97-1.29,1.39-1.29.19,0,.29.13.29.4s-.07.53-.21.78c-.14.25-.34.53-.59.84s-.55.68-.89,1.09-.71.94-1.12,1.56c.25-1.4.63-2.53,1.14-3.39Z" fill="#fff" stroke-width="0"/><path id="adventure" d="M83.92,47.9c-.11,0-.26.12-.47.35-.2.23-.47.49-.79.76-.87.74-1.78,1.11-2.71,1.11-.44-.01-.84-.11-1.18-.29-.35-.18-.53-.48-.54-.91v-.45c.48-.22.96-.41,1.46-.58.5-.17.95-.37,1.35-.59.41-.22.74-.5,1-.82.26-.33.39-.75.39-1.26s-.18-.93-.53-1.26-.85-.48-1.51-.48-1.26.15-1.84.44c-.57.29-1.08.7-1.52,1.23-.44.53-.79,1.15-1.05,1.87-.25.69-.38,1.36-.39,2-.25.26-.51.49-.76.71-.26.23-.48.34-.66.34-.13,0-.19-.1-.19-.31,0-.21.09-.62.26-1.23.17-.61.31-1.13.44-1.56.13-.43.24-.88.35-1.34-.35-1.02-.69-1.52-1.04-1.52-.11,0-.23.04-.38.11l-.47.23c-.45.23-.85.34-1.2.34-.25,0-.46-.03-.63-.09-.11-.43-.28-.81-.52-1.13-.34-.47-.72-.7-1.17-.7-.86,0-1.29.4-1.29,1.2,0,.38.27.84.82,1.36-.37.73-.62,1.45-.74,2.16-.05.26-.08.58-.11.92-.15.15-.31.31-.47.48-.26.27-.53.52-.79.74-.26.23-.48.34-.66.34-.13,0-.2-.1-.2-.3-.01-.43.11-1.26.38-2.49.26-1.23.39-2.14.39-2.73,0-.42-.04-.73-.12-.93-.08-.2-.27-.3-.58-.3-1.24,0-1.86.4-1.86,1.2v.32c0,.14,0,.29,0,.43,0,.14.01.29.02.44,0,.15.02.27.03.37-.12.97-.35,1.85-.68,2.64-.43,1.03-.94,1.54-1.52,1.54-.54,0-.81-.21-.81-.64,0-.54.1-1.16.29-1.86s.34-1.28.46-1.74.14-.98.08-1.57c-.07-.72-.38-1.08-.93-1.08-.69,0-1.23.14-1.6.43l-.5,4.25c-.1.09-.22.21-.34.37-.26.35-.69.71-1.29,1.08-.6.38-1.01.57-1.24.57-.27,0-.41-.48-.41-1.43s.13-2.16.38-3.62l1.79.09c.13.01.25-.14.35-.47.1-.32.15-.59.15-.81,0-.08,0-.15-.03-.19s-.14-.06-.36-.06-.75-.01-1.59-.04l.74-1.29c-.06-.19-.11-.37-.16-.54-.19-.6-.53-.9-1-.91-.6,0-1.18.92-1.76,2.76-.19.01-.37.02-.54.02h-.43c-.2.24-.33.45-.39.64-.05.19-.08.42-.08.71,0,.12.07.18.21.18h.81c-.29,1.3-.43,2.34-.43,3.1,0,.1,0,.19,0,.28-.15.16-.31.32-.49.5-.26.27-.53.52-.79.74-.26.23-.48.34-.66.34-.13,0-.2-.1-.2-.29s.04-.43.12-.73c.08-.29.2-.78.38-1.46.17-.68.26-1.35.26-2.02s-.21-1.18-.63-1.54c-.42-.36-1.04-.55-1.87-.55s-1.53.29-2.09.88c-.38-.82-.79-1.24-1.22-1.24-.25,0-.48.17-.7.5-.63.97-1.04,2.01-1.22,3.14-.07.43-.13,1.01-.16,1.74-.16.16-.33.33-.54.5-.87.74-1.77,1.11-2.71,1.11-.44-.01-.84-.11-1.18-.29-.35-.18-.53-.48-.54-.91v-.45c.48-.22.96-.41,1.46-.58.5-.17.95-.37,1.35-.59.41-.22.74-.5,1-.82.26-.33.39-.75.39-1.26s-.18-.93-.53-1.26c-.35-.32-.86-.48-1.51-.48s-1.26.15-1.84.44c-.57.29-1.08.7-1.52,1.23-.44.53-.79,1.15-1.05,1.87-.21.58-.33,1.14-.38,1.68-.3.17-.62.27-.99.28-.43,0-.75-.32-.97-.95.48-.73.82-1.32,1.04-1.77.22-.45.32-.89.32-1.32,0-.24-.04-.45-.13-.64-.21-.5-.65-.75-1.31-.75s-1.15.25-1.47.75c-.26.39-.39,1.02-.39,1.88,0,.49.07,1.01.21,1.56-.3.57-.59,1.07-.88,1.48-.29.41-.55.62-.79.62-.28-.11-.5-.4-.68-.88-.05-.26-.07-.57-.07-.93s-.01-.73-.04-1.11c.29-1.02.43-1.92.43-2.73,0-.2-.08-.39-.23-.56-.16-.17-.38-.26-.66-.26-.77,0-1.28.19-1.54.57-.31.49-.39,1.3-.25,2.44.07.63.14,1.2.23,1.74-.03.03-.06.06-.09.09-1.2,1.24-1.95,1.86-2.26,1.86-.28,0-.41-.41-.41-1.24,0-.27.02-.64.07-1.09.17-1.6.42-3.05.77-4.34.16-.23.31-.45.47-.67.16-.22.3-.45.42-.68s.23-.49.31-.76c.08-.27.13-.56.13-.84s-.13-.63-.39-1.02c-.3-.48-.62-.72-.97-.72-.21,0-.43.13-.64.39-.65.78-1.21,2.32-1.7,4.63l-.41-.11c-.26-.07-.62-.11-1.08-.11-1,0-1.97.4-2.9,1.2-1.23,1.06-1.89,2.49-2,4.27-.76.73-1.26,1.1-1.49,1.1-.25,0-.38-.5-.38-1.49s.05-1.76.14-2.31c.32-.55.57-1.02.74-1.42,0-.32-.19-.67-.57-1.03-.38-.36-.77-.55-1.19-.55-.22,0-.41.17-.57.52-.35-.19-.8-.29-1.35-.29s-1.07.08-1.57.23c-.5.16-1.03.48-1.6.97-1.35,1.17-2.03,2.77-2.03,4.8-.01.75.24,1.39.75,1.92.51.53,1.19.79,2.04.79s1.52-.16,2.02-.49.91-.75,1.22-1.26c.22,1.11.64,1.67,1.27,1.67.47,0,.94-.11,1.43-.34.49-.23.94-.52,1.34-.87.03-.03.06-.06.09-.1.12.21.25.42.43.61.51.53,1.2.79,2.06.79,1.41,0,2.47-.57,3.19-1.7.2,1.08.63,1.61,1.29,1.61.47,0,.94-.11,1.43-.34.49-.23.94-.52,1.34-.87s.73-.74.98-1.17c0,0,0,0,0-.01.08.32.17.62.26.9.36,1.05.72,1.58,1.09,1.58.94,0,2.12-.91,3.51-2.73.5.74,1.18,1.11,2.03,1.11.41,0,.77-.08,1.09-.21.03.09.06.17.1.25.51,1.03,1.48,1.54,2.9,1.54,1.79,0,3.2-.48,4.23-1.45.06-.06.11-.11.17-.17,0,.59.06,1.04.17,1.33.11.31.32.47.62.47.12,0,.26-.03.41-.09,1.02-.39,1.52-.79,1.52-1.2,0-.17-.06-.47-.19-.9s-.19-.85-.19-1.26v-.13c.15-.79.46-1.55.91-2.29.45-.73.92-1.1,1.42-1.1s.74.22.74.65c0,.26-.03.52-.09.77s-.15.65-.28,1.2c-.13.55-.19,1.15-.19,1.81,0,1.53.48,2.3,1.43,2.3.01.01.04.02.07.02.38,0,1.27-.41,2.65-1.22.17-.16.33-.33.46-.5.06.24.12.47.21.67.14.32.31.57.52.75s.51.28.91.28.86-.11,1.39-.34c.53-.23,1.02-.52,1.45-.87.15-.12.28-.26.42-.39.1.46.33.83.71,1.09.51.36,1.23.54,2.18.54.54,0,1.02-.16,1.43-.48.42-.32.75-.7.99-1.14.05.45.16.83.35,1.13s.5.45.96.45c.02.01.05.02.09.02.37,0,1.25-.41,2.64-1.22.07-.07.14-.14.2-.2.01.5.06.9.17,1.17.11.31.32.47.62.47.51,0,.92-.11,1.22-.34.3-.23.45-.48.45-.77l-.11-2.19c0-.39.05-.82.16-1.28s.21-.92.32-1.37c.14.02.38.04.71.04s.62-.05.89-.16c-.56,1.12-.84,2.31-.84,3.57.01.63.16,1.17.43,1.61.27.44.69.66,1.24.66.93.01,1.76-.38,2.48-1.18.01-.01.02-.03.04-.04.54.85,1.46,1.28,2.75,1.28,1.79,0,3.2-.48,4.23-1.45.42-.39.72-.8.9-1.21.18-.41.27-.79.27-1.12s-.08-.5-.25-.5ZM79.65,45.06c.37,0,.56.15.56.45-.01.33-.2.63-.56.9-.17.12-.36.25-.58.38-.22.13-.46.28-.71.45.24-1.45.67-2.17,1.29-2.17ZM40.82,45.06c.37,0,.56.15.56.45-.01.33-.2.63-.56.9-.17.12-.36.25-.58.38-.22.13-.46.28-.71.45.24-1.45.67-2.17,1.29-2.17ZM13.94,48.17c-.11.38-.25.71-.41.97-.48.77-1.08,1.15-1.81,1.17-.68,0-1.02-.46-1.02-1.38,0-1.12.36-2.06,1.08-2.8s1.56-1.21,2.53-1.4c-.24.96-.36,2.1-.36,3.44ZM23.75,48.27c-.23.73-.55,1.25-.96,1.56-.41.31-.82.47-1.23.47-.68,0-1.02-.46-1.02-1.38,0-1.12.36-2.06,1.08-2.8s1.55-1.21,2.51-1.4c-.23,1.29-.35,2.47-.38,3.55Z" fill="#fff" stroke-width="0"/><rect id="bottom-line" y="35.86" width="127.5" height="1" fill="#fff" stroke-width="0"/><g id="tahoe-section"><path d="M36.74,19.79h6.83l-3.44-9.89-3.39,9.89ZM93.34,12.33c-.71-.78-1.53-1.38-2.46-1.8s-1.91-.64-2.92-.64c-1.16,0-2.21.24-3.15.71-.94.48-1.75,1.12-2.41,1.92-.66.8-1.17,1.74-1.53,2.8-.36,1.07-.54,2.18-.54,3.35,0,1.36.2,2.58.6,3.64.4,1.07.93,1.95,1.58,2.66s1.44,1.3,2.35,1.77c.91.48,1.94.71,3.1.71s2.21-.24,3.14-.71c.94-.48,1.74-1.12,2.4-1.92.66-.8,1.17-1.73,1.53-2.79.36-1.06.54-2.18.54-3.36s-.2-2.37-.59-3.49-.94-2.07-1.65-2.85ZM0,2.99v30.88h127.5V2.99H0ZM22.66,10.01v17.22h2.28v2.51h-7.16v-2.51h2.03V10.01h-5.05v3.44h-2.99v-5.84h19.73v5.84h-2.99v-3.44h-5.84ZM51.51,29.74h-7.18v-2.51h1.84l-1.75-5.02h-8.51l-1.71,5.02h2.28v2.51h-7.18v-2.51h1.93l6.89-19.61h4.3l6.87,19.61h2.22v2.51ZM76.28,10.13h-2.1v17.1h2.1v2.51h-7.18v-2.51h2.22v-7.95h-12.8v7.95h2.22v2.51h-7.18v-2.51h2.1V10.13h-2.1v-2.51h7.18v2.51h-2.22v6.7h12.8v-6.7h-2.22v-2.51h7.18v2.51ZM97.79,23.17c-.52,1.4-1.25,2.61-2.19,3.65-.94,1.04-2.06,1.86-3.36,2.46-1.3.6-2.73.9-4.28.9s-2.92-.28-4.19-.85c-1.26-.57-2.39-1.38-3.39-2.43-.99-1.05-1.75-2.3-2.26-3.74-.52-1.44-.77-2.93-.77-4.48s.26-3.09.78-4.49c.52-1.4,1.25-2.62,2.19-3.65.94-1.04,2.06-1.85,3.36-2.45s2.73-.9,4.28-.9,3,.3,4.3.9c1.3.6,2.42,1.42,3.36,2.45.93,1.04,1.66,2.25,2.17,3.65s.77,2.9.77,4.49-.26,3.09-.78,4.49ZM115.51,13.88h-2.99v-3.74h-7.89v7.08h6.64v2.51h-6.64v7.5h7.89v-3.74h2.99v6.25h-15.85v-2.51h2.1V10.15h-2.1v-2.52h15.85v6.26Z" fill="#fff" stroke-width="0"/></g><rect id="top-line" width="127.5" height="1" fill="#fff" stroke-width="0"/></svg>