<svg width="24" height="24" viewBox="0 0 24 24" fill="none" xmlns="http://www.w3.org/2000/svg">
<path d="M22.6566 0H1.32392C0.593267 0 0 0.593267 0 1.32392V22.6566C0 23.3872 0.593267 23.9805 1.32392 23.9805H11.9902V14.4882H9.12383V10.9911H11.9902V8.40566C11.9902 5.30818 14.1385 3.62205 16.905 3.62205C18.2289 3.62205 19.6528 3.72197 19.9837 3.76569V7.00055H17.7793C16.2743 7.00055 15.987 7.71247 15.987 8.76162V10.9911H19.5716L19.1032 14.4882H15.987V23.9805H22.6566C23.3872 23.9805 23.9805 23.3872 23.9805 22.6566V1.32392C23.9805 0.593267 23.3872 0 22.6566 0Z" fill="black"/>
</svg>
