<svg xmlns="http://www.w3.org/2000/svg" width="100" height="100" viewBox="0 0 100 100"><title>Dog Walker</title><g id="Layer_2" data-name="Layer 2"><g id="Layer_1-2" data-name="Layer 1"><rect id="bg" width="100" height="100" fill="#edc214"/><g id="dog"><path d="M55.44,46.36c9.25,3.25,17,15.13,17,22.88,0,11.5-43.5,10.5-43.5,0,0-8.14,6.5-9.09,6.5-21C35.46,41,46.19,43.11,55.44,46.36Z"/><path d="M47,23.51V62.87c6.76,0,9.63-2.13,11-8.5a9.19,9.19,0,0,1,.81-2.22c1.73-3.42,5.11-6.13,5.11-12.84,0-8.43-2.89-14.92-14.42-15.71C48.72,23.54,47.89,23.51,47,23.51Z"/><path d="M47,23.51V62.87c-6.76,0-9.63-2.13-11-8.5a9.19,9.19,0,0,0-.81-2.22c-1.73-3.42-5.11-6.13-5.11-12.84,0-8.43,2.89-14.92,14.42-15.71C45.3,23.54,46.13,23.51,47,23.51Z"/><path d="M47,48.84c1.6,0,3.88.06,3.88,1.2,0,1.83-2.11,4.18-3.88,4.18Z" fill="#edc214"/><path d="M47,48.84c-1.6,0-3.88.06-3.88,1.2,0,1.83,2.11,4.18,3.88,4.18Z" fill="#edc214"/><path d="M40.26,25.88c-1.88-.39-2.84-3.77-4.76-3.77-2.83,0-11.13,4.19-12.29,7.63-1.54,4.54.92,16.37,3.79,16.37,5.42,0,9-12.46,9-15.25s2.93-1.17,2.93-1.17Z"/><path d="M51.63,30.88c3.07-2.93,6.51-7.77,9.23-7.77,4,0,10.93,4.95,11.18,8,.34,4-2.78,15.29-5.28,15.29-3.28,0-10.89-7.71-10.89-10.5s-2.93-1.17-2.93-1.17Z"/><path d="M44,40.5c0,2-1.57,3.06-3.55,3.06S36.88,43,36.88,41a3.58,3.58,0,0,1,3.58-3.58C42.44,37.41,44,38.52,44,40.5Z" fill="#edc214"/><path d="M50,40.5c0,2,1.57,3.06,3.55,3.06S57.13,43,57.13,41a3.57,3.57,0,0,0-3.57-3.58C51.58,37.41,50,38.52,50,40.5Z" fill="#edc214"/><path d="M76.39,54.72c-1.46,5.86-6,14.69-11,16.32-7.81,2.6-.46-9.16-.46-9.16s6-1,8.46-8.24c1.94-5.7,1.9-6.91,2.39-7.3C77.31,45.16,77.89,48.7,76.39,54.72Z"/></g></g></g></svg>