<?xml version="1.0" encoding="UTF-8"?><svg id="Layer_1" xmlns="http://www.w3.org/2000/svg" width="104" height="34.7" viewBox="0 0 104 34.7"><polygon points="97.5 0 75.8 0 69.3 6.5 69.3 28.2 75.8 34.7 97.5 34.7 104 28.2 104 21.7 101.8 19.5 91 19.5 91 21.7 82.3 21.7 82.3 13 91 13 91 15.1 101.8 15.1 104 13 104 6.5 97.5 0" fill="#fff" stroke-width="0"/><polygon points="23.8 0 21.7 2.2 21.7 10.8 10.8 0 2.2 0 0 2.2 0 32.5 2.2 34.7 10.8 34.7 13 32.5 13 23.8 23.8 34.7 32.5 34.7 34.7 32.5 34.7 2.2 32.5 0 23.8 0" fill="#fff" stroke-width="0"/><polygon points="47.7 34.7 56.3 34.7 58.5 32.5 58.5 26 69.3 15.2 69.3 2.2 67.2 0 58.5 0 56.3 2.2 56.3 6.5 52 10.8 47.7 6.5 47.7 2.2 45.5 0 36.8 0 34.7 2.2 34.7 15.2 45.5 26 45.5 32.5 47.7 34.7" fill="#fff" stroke-width="0"/></svg>