<svg xmlns="http://www.w3.org/2000/svg" width="100" height="100" viewBox="0 0 100 100"><title>Tutor</title><g id="Layer_2" data-name="Layer 2"><g id="Layer_1-2" data-name="Layer 1"><rect id="bg" width="100" height="100" fill="#f46331"/><g id="icon"><path id="pencil" d="M71.5,23.5a5,5,0,0,0-5,5v34c0,3,1,4.15,5,12,4-7.85,5-9,5-12v-34A5,5,0,0,0,71.5,23.5Zm0,2a3,3,0,1,1-3,3A3,3,0,0,1,71.5,25.5Zm-3,7a5,5,0,0,0,6,0v2a3,3,0,0,1-6,0Zm0,6a5,5,0,0,0,6,0v24a3,3,0,0,1-6,0Z"/><path id="book" d="M60.5,25.5v-2h-30a5,5,0,0,0-5,5v40a5,5,0,0,0,5,5h30v-42a3,3,0,0,1,0-6Zm-30,6a3,3,0,0,1,0-6h26a5,5,0,0,0-1,3,4.92,4.92,0,0,0,1,3Z"/></g></g></g></svg>